<svg version="1" xmlns="http://www.w3.org/2000/svg" width="116" height="116" viewBox="0 0 87.000000 87.000000"><path d="M28.9 7.4C2 14.3-4.8 48.4 17.4 65.1c8.4 6.4 16 7.6 29.8 4.8 23.3-4.8 34.2-16.3 35.6-37.8.4-6.2.2-8.2-.6-7.7-.7.4-1.2 1.5-1.2 2.4 0 2.8-5.6 11.7-9.6 15.2-4.1 3.6-11.8 7.3-17.4 8.4-8.8 1.7-15 6.9-15 12.6v2.2l-3.7-2.3c-2.1-1.3-4.8-3.3-5.9-4.5-1.2-1.3-2.4-2-2.7-1.8-1.3 1.3 1.6 7.2 4.9 10.1l3.7 3.3-5.4-1.6C11.8 63 2.6 43.3 10.4 26.8 18.3 10.1 37.6 4.1 54 13.3l3.5 1.9-1.8-2c-4.7-5.2-18-8-26.8-5.8z"/><path d="M35.9 15.1c-1.1.7-1.2 1.2-.2 2.8.8 1.3.9 2.2.3 2.6-.6.3-1 .1-1-.6 0-.8-1.1-.9-3.7-.4-2.1.4-5.5.8-7.6.8-2-.1-4 .3-4.3.8-.3.5.1.9.9.9s2.8.7 4.6 1.6c1.8.9 5 1.8 7.2 2.1 2.1.3 4 1 4 1.4.1.5.2 1.5.3 2.1.1.7-.6 1.9-1.6 2.6-2.4 1.8-2.3 3.4.7 6.6 1.4 1.5 2.5 2.2 2.5 1.5 0-.7.3-.9.7-.6.3.4-.7 1.9-2.3 3.3l-2.8 2.7 2.2 1.5c2.1 1.4 2.2 1.6.6 3.3-2 2.2-.6 2.5 2.2.5 1.7-1.3 1.7-1.7.5-3.7s-1.1-2.4.3-3.4c1.8-1.4 2.2-5.1.4-5.7-.6-.2-1.3-1.4-1.4-2.5-.3-1.6.4-2.4 2.6-3.2 3.4-1.1 5-3.9 2.9-5.1-1-.7-.9-1 .6-1.5 1.1-.4 3.5-1.3 5.3-2.1 1.8-.8 4-1.4 4.8-1.4 3.6 0 .1-1.7-3.8-1.8-2.4-.1-5.6-.5-7.2-.8-1.9-.4-3.1-.2-3.7.7-.4.7-1.1 1-1.5.6-.4-.4-.2-1.3.4-1.9 2.6-2.6.1-5.6-2.9-3.7zM40 26.4c0 .3-.4.8-1 1.1-.5.3-1 .1-1-.4 0-.6.5-1.1 1-1.1.6 0 1 .2 1 .4zm1.8 3.2c-1 1-2.1 1.3-2.9.8-1.2-.7 0-1.4 4.1-2.3.2-.1-.3.6-1.2 1.5zM36.7 35c-.1 1.2-.5 1.6-1 1.1s-.6-1.4-.3-2c1.1-1.6 1.5-1.3 1.3.9z"/></svg>